<?xml version="1.0" encoding="UTF-8"?>
<svg width="40px" height="20px" viewBox="0 0 40 20" version="1.1" xmlns="http://www.w3.org/2000/svg" xmlns:xlink="http://www.w3.org/1999/xlink">
    <title>分组 7</title>
    <g id="页面-1" stroke="none" stroke-width="1" fill="none" fill-rule="evenodd">
        <g id="大屏控件" transform="translate(-205.000000, -306.000000)">
            <g id="分组-7" transform="translate(205.000000, 306.000000)">
                <rect id="矩形" fill="#F46D00" x="0" y="0" width="40" height="20" rx="10"></rect>
                <g id="GIF" transform="translate(10.000000, 5.000000)" fill="#FFFFFF" fill-rule="nonzero">
                    <path d="M0,2.14285705 L0,7.85714252 L0,7.85714284 C0,9.04060931 0.959390744,10.0000004 2.14285725,10.0000004 L5.7142858,10.0000004 L5.7142858,4.28571442 L2.85714296,4.28571442 L2.85714296,5.71428579 L4.28571438,5.71428579 L4.28571438,8.57142853 L2.14285725,8.57142853 L2.14285722,8.57142853 C1.74836839,8.57142851 1.42857151,8.25163166 1.42857151,7.85714284 L1.42857151,2.14285737 L1.42857151,2.14285748 C1.42857145,1.74836866 1.74836839,1.4285718 2.14285722,1.4285718 L5.7142858,1.4285718 L5.7142858,4.31416723e-07 L2.14285722,4.31416723e-07 L2.14285713,4.31416723e-07 C0.959390619,4.31416723e-07 0,0.959391015 0,2.14285748 L0,2.14285705 Z M20,1.42857137 L20,0 L14.2857143,0 L14.2857143,10 L15.7142857,10 L15.7142857,5.71428547 L19.2857143,5.71428547 L19.2857143,4.2857141 L15.7142857,4.2857141 L15.7142857,1.42857137 L20,1.42857137 Z M7.14285722,0 L7.14285722,1.42857137 L9.28571435,1.42857137 L9.28571435,8.5714282 L7.14285722,8.5714282 L7.14285722,10 L12.8571429,10 L12.8571429,8.5714282 L10.7142858,8.5714282 L10.7142858,1.42857137 L12.8571429,1.42857137 L12.8571429,0 L7.14285722,0 Z" id="形状"></path>
                </g>
            </g>
        </g>
    </g>
</svg>