<?xml version="1.0" encoding="UTF-8"?>
<svg width="40px" height="40px" viewBox="0 0 40 40" version="1.1" xmlns="http://www.w3.org/2000/svg" xmlns:xlink="http://www.w3.org/1999/xlink">
    <title>形状 2</title>
    <g id="页面-1" stroke="none" stroke-width="1" fill="none" fill-rule="evenodd">
        <g id="大屏控件" transform="translate(-664.000000, -101.000000)" fill="#CDCECD" fill-rule="nonzero">
            <g id="分组-16" transform="translate(664.000000, 101.000000)">
                <g id="形状-2" transform="translate(1.500000, 5.500000)">
                    <path d="M32.1436217,27.2056121 C32.0217652,27.190072 32.1250783,27.0191304 31.9634861,26.9595599 L31.9634861,26.8922192 L31.9290484,26.8559589 C31.8707692,26.8171086 31.7965957,26.8352387 31.7197731,26.7989784 C31.7197731,26.7419979 31.6747392,26.7057375 31.6561958,26.6280368 C31.5820223,26.6280368 31.5979166,26.542566 31.5634789,26.4855855 L31.4124828,26.3353641 C31.4310262,26.211043 31.5237431,26.0582316 31.5051997,25.9157803 C31.4866563,25.8587998 31.4866563,25.7836891 31.4310262,25.7448387 L31.4310262,25.7448387 C31.4612222,25.4959836 31.544231,25.2560324 31.6747392,25.0403522 C31.6747392,24.9652416 31.6561958,24.8435104 31.7224221,24.7502696 L31.8363315,24.690699 C31.8734182,24.6518487 31.8734182,24.5456577 31.8893125,24.4550069 C31.9290484,24.359176 32.0906406,24.3410458 32.1250783,24.1960045 C32.2019009,24.1778743 32.2760744,24.1597442 32.3343536,24.0820434 C32.3979309,24.0820434 32.4932969,24.0250629 32.5674704,24.0250629 C32.6231005,24.0820434 32.6416439,24.1597442 32.7661494,24.1778743 C32.893304,24.6518487 32.7661494,25.232014 32.744957,25.7629689 C32.6045571,25.998661 32.697274,26.3327741 32.4932969,26.5606962 C32.4350177,26.6850174 32.4721044,26.8352387 32.453561,26.97769 C32.4350177,27.0735209 32.4164743,27.1486316 32.3131612,27.190072 C32.2575311,27.1693518 32.2177952,27.2263323 32.1436217,27.2056121 L32.1436217,27.2056121 Z M23.2692907,30.997407 C23.234853,30.9585566 23.1421361,30.9378364 23.0494193,30.9015761 L23.0096834,30.8445956 C22.9434571,30.8264654 22.8507402,30.8445956 22.7765667,30.787615 L22.7182875,30.7280445 C22.6997441,30.6632939 22.7182875,30.5881832 22.6626574,30.5130725 L22.6149744,30.4742222 C22.6149744,30.3576711 22.5593443,30.2566602 22.5778876,30.1219789 C22.596431,30.0649984 22.6997441,30.0287381 22.6812007,29.9225471 C22.8480912,29.7878659 23.0255778,29.6298744 23.2533964,29.4951932 C23.3937963,29.4951932 23.4706188,29.4589328 23.6004225,29.3993623 C23.6851922,29.3993623 23.6851922,29.4589328 23.7779091,29.477063 L23.8918184,29.4589328 L23.9474486,29.3605119 L23.9103618,29.3138915 C23.8547317,29.2957613 23.7620148,29.2776312 23.6851922,29.2387808 C23.6401583,29.1818003 23.5633357,29.1429499 23.526249,29.0678392 C23.526249,28.9435181 23.430883,28.8684074 23.4149887,28.718186 L23.3567095,28.6586155 C23.3381661,28.5912749 23.3381661,28.498034 23.3196228,28.4255133 L23.2931322,28.384073 C23.1977663,28.3659428 23.1235928,28.3659428 23.0096834,28.3452226 C22.9646495,28.2986022 22.887827,28.280472 22.8507402,28.2027713 L22.8507402,28.2027713 C22.7193488,28.1639112 22.5827023,28.1447005 22.4454354,28.1457908 C22.3156317,28.1457908 22.3527185,28.2597518 22.2335111,28.2986022 C22.1169527,28.3270924 22.0215867,28.3270924 21.8838359,28.3270924 C21.7354889,28.277882 21.640123,28.2234915 21.4785307,28.1457908 C21.4070062,28.1457908 21.2825007,28.1639209 21.1871347,28.1069404 C21.1129612,27.9929794 20.9831576,27.9075086 20.8798444,27.7754174 C20.8427577,27.7546972 20.8427577,27.6795865 20.8056709,27.5941157 C20.7871276,27.4620245 20.858652,27.3092131 20.8242143,27.1486316 L20.7659351,27.1123713 C20.712954,27.1123713 20.6069919,27.1305014 20.5328184,27.1305014 L20.5328184,27.1305014 C20.3110644,27.0537384 20.0980092,26.9547926 19.8970454,26.8352387 C19.875853,26.9310696 19.7275059,26.97769 19.6877701,27.0942411 C19.634789,27.1667618 19.4917401,27.2056121 19.4334609,27.3273432 C19.338095,27.405044 19.1632574,27.3661936 19.0308047,27.3661936 C18.9725255,27.3869138 18.9539822,27.4438943 18.850669,27.4620245 C18.5804655,27.3661936 18.2784734,27.4620245 17.9870774,27.3480634 C17.9235001,27.3480634 17.8493266,27.3687836 17.8095908,27.407634 L17.7539607,27.519005 C17.6771381,27.519005 17.5552816,27.519005 17.4625647,27.5008748 C17.3883912,27.519005 17.2930253,27.5008748 17.2267989,27.5785756 C17.1897122,27.8505281 17.3486554,28.1820511 17.1711688,28.4410535 C17.0784519,28.4203333 17.0599085,28.5135741 16.9459992,28.5342943 C16.8797728,28.5342943 16.8426861,28.5135741 16.7685126,28.498034 C16.6731466,28.4410535 16.7102334,28.3270924 16.5698335,28.2986022 C16.5512901,28.2027713 16.5168524,28.1276606 16.4771166,28.0136996 L16.4373808,27.9748492 C16.3234715,27.9748492 16.3632073,28.1069404 16.2413508,28.1457908 C16.1671773,28.1457908 16.053268,28.166511 15.957902,28.1069404 L15.9579021,28.1069404 C15.9119803,28.0479065 15.8585712,27.9948175 15.7989592,27.9489494 C15.7618725,27.9282292 15.7618725,27.8142682 15.7062424,27.7780078 C15.6691556,27.7572876 15.6135255,27.7365674 15.5949821,27.6433266 L15.5949821,27.6433266 C15.543833,27.6029979 15.480533,27.5802445 15.4148464,27.578576 C15.3751106,27.5371356 15.3221295,27.5190054 15.2664994,27.4646149 C15.2373598,27.4076344 15.1817297,27.3869142 15.1605372,27.2833133 C15.1605372,27.1693522 15.1817297,27.0761114 15.1817297,26.9336601 C15.2823937,26.8922197 15.200273,26.7989788 15.2664994,26.705738 C15.2188164,26.6461674 15.1419938,26.6280373 15.049277,26.5788268 C15.0095411,26.4855859 14.9168243,26.4493256 14.8691413,26.3146444 C14.8691413,26.1903232 14.8505979,26.0944924 14.8505979,25.9649912 L14.7976168,25.84067 C14.6254283,25.7448391 14.3737682,25.8613902 14.1565457,25.8018197 L14.0797232,25.7448391 L14.0797231,25.7448386 C14.0316374,25.4947407 14.0200428,25.2392417 14.0452854,24.9859617 C14.0611797,24.8823607 14.1936324,24.8979009 14.2307192,24.7865298 L14.2307192,24.6751588 C14.3154889,24.5793279 14.3896624,24.4006163 14.5592019,24.3436358 C14.6254283,24.265935 14.7022508,24.1623341 14.8135111,24.1053536 C14.8691412,24.0690932 14.8691412,23.9732624 14.8691412,23.8670714 L14.8691412,23.8670714 C14.9255665,23.8002334 14.9670739,23.7225978 14.9909977,23.6391493 C14.9751034,23.5174182 15.0095411,23.4215873 15.0280845,23.2894961 C15.0863637,23.0900642 15.0280845,23.0149535 15.0280845,22.9009925 L14.953911,22.7973916 L14.8320545,22.7611312 L14.8320548,22.761132 C14.7330659,22.5547585 14.642051,22.344818 14.5592023,22.1317562 C14.5035721,22.113626 14.4638363,22.1317562 14.3923119,22.113626 C14.352576,22.1706065 14.2333686,22.2949277 14.1936328,22.3881685 C14.0797235,22.4839994 13.8836935,22.4244289 13.7326974,22.4451491 C13.515475,22.3674483 13.3883204,22.1887367 13.2081847,22.0747757 L12.9803648,22.0747757 L12.839965,22.1706065 C12.7604933,22.1706065 12.7260556,22.2353571 12.6147954,22.2534873 L12.548569,22.2534873 L12.4346597,22.2949277 C12.3604862,22.3493182 12.2677693,22.4244289 12.1432637,22.4839994 C12.0505469,22.6264507 11.8333244,22.6057305 11.6478906,22.6808412 L11.6108039,22.7378217 C11.5445775,22.7585419 11.5260342,22.8155225 11.4306682,22.8336526 L11.3194079,22.8336526 C11.2611288,22.8543728 11.2425854,22.9217134 11.1392723,22.9372536 L11.1392723,22.9372536 C10.9099843,22.9877849 10.6714204,22.9815535 10.4452202,22.9191234 L10.3127675,22.7766721 C10.2756807,22.6808413 10.3127675,22.6057306 10.2942241,22.4814094 L10.2942241,22.4814094 C10.2021868,22.3744378 10.0908475,22.2848934 9.96574138,22.217227 L9.96574136,22.217227 C9.92395088,22.1304166 9.85414458,22.0594362 9.76706231,22.0152051 L9.71408123,21.9038341 L9.60017191,21.8364935 L9.54189272,21.7251224 C9.44122867,21.6655519 9.27168921,21.6474217 9.13128935,21.6111614 L9.01738002,21.5049704 L8.673003,21.5049704 C8.59353138,21.5904412 8.47167489,21.6474217 8.41604476,21.7380726 C8.41604476,21.8364935 8.35776557,21.9038341 8.32067881,22.0177951 C8.30213544,22.0540555 8.22796192,22.0540555 8.14319219,22.0954958 C8.08756206,22.0954958 7.99219611,22.0540555 7.9180226,22.0359253 C7.77762274,21.8857039 7.93656598,21.5904412 7.77762274,21.4091395 C7.68490585,21.4298597 7.60808328,21.5023804 7.4862268,21.4842502 C7.41205328,21.4661201 7.3935099,21.352159 7.30079301,21.3158987 L7.00939707,21.3158987 L6.8292614,21.2200678 C6.65972194,21.1812174 6.44514856,21.0750265 6.25706573,21.0387661 C6.18024316,21.0387661 6.15110357,20.9791956 6.07957911,20.9429353 C5.96566978,20.9429353 5.80672654,20.9429353 5.67427384,20.8859547 C5.63718709,20.8186141 5.60010033,20.7616336 5.56301357,20.6476725 C5.45705141,20.6269523 5.3828779,20.5699718 5.27161763,20.5337115 C5.23188182,20.484501 5.21598749,20.4689609 5.17890074,20.3912602 C5.17890074,20.3342797 5.17890074,20.2980193 5.1524102,20.2203186 C5.07558763,20.1840583 4.98287074,20.1659281 4.8875048,20.1167177 L4.8239275,20.0053466 L4.71001818,19.9431861 C4.6570371,19.8913856 4.67293142,19.7489343 4.6570371,19.6505134 L4.5590221,19.5572725 L4.43716561,19.4795718 C4.3629921,19.4329514 4.23318845,19.4329514 4.14576967,19.3578407 L4.14576971,19.3578408 C3.92624261,18.9422512 3.62671655,18.5720114 3.26363472,18.2674408 C3.21065364,18.2674408 3.16826878,18.2674408 3.0861481,18.2855709 C3.00932554,18.3425514 2.97488783,18.4357923 2.86097851,18.4668726 C2.82389175,18.4176621 2.72057865,18.4176621 2.64375608,18.3632716 L2.64375606,18.3632716 C2.55109505,18.1855741 2.44203101,18.0165204 2.31792242,17.858217 C2.25964323,17.7831063 2.2384508,17.640655 2.16427728,17.5629542 L2.16427698,17.5629539 C2.03922797,17.4360363 1.92411167,17.300109 1.81990078,17.1563202 L1.69539524,17.1356 C1.64241416,17.0708494 1.60267835,16.9568884 1.49141808,16.918038 C1.40664835,16.5657948 1.49141808,16.2342717 1.44373511,15.8638983 C1.49141808,15.8069178 1.44373511,15.7007268 1.49141808,15.6282062 C1.56559159,15.5867658 1.60267835,15.5323753 1.71658767,15.4935249 L1.76956875,15.4935249 C1.8357951,15.5505054 1.85698754,15.6282062 1.96824781,15.6489263 L2.02652699,15.5686356 C2.02652699,15.2371126 1.94970443,14.96257 1.91261767,14.7061577 C1.96824781,14.6103268 2.02652699,14.5352161 2.08215713,14.4031249 L2.08215709,14.4031248 C1.92637409,14.113616 1.84886401,13.7899812 1.8569875,13.4629462 C1.8569875,13.3204949 1.69804426,13.4629462 1.64506318,13.3386251 L1.5285048,13.3386251 C1.34836913,13.2453842 1.21856548,13.0330022 1.05697319,12.8542906 C0.964256295,12.8361604 0.945712917,12.7765899 0.831803594,12.7403296 L0.786769676,12.7014792 C0.694052785,12.4269367 0.786769676,12.1135438 0.694052785,11.8208711 C0.59868684,11.7794307 0.580143462,11.6395694 0.484777517,11.5618687 C0.365570086,11.5048882 0.307290897,11.4297775 0.174838196,11.3365367 L0.174838175,11.3365366 C0.156280931,11.2581455 0.156280931,11.1766459 0.174838187,11.0982544 C0.251660753,11.0205537 0.365570076,11.0024235 0.50596994,10.9350829 L0.543056696,10.8988225 L0.543056696,10.665718 C0.580143453,10.562117 0.638422641,10.5051365 0.675509398,10.3704553 C0.675509398,10.3134747 0.656966019,10.2098738 0.656966019,10.1347631 C0.635773587,10.0777826 0.635773587,10.0000819 0.580143453,9.9612315 C0.437094535,9.89648091 0.32848332,9.9612315 0.174838187,9.87576072 C0.140400484,9.83950038 0.11126089,9.76179967 0.0344383232,9.72553934 L0,9.60380822 L0.0370867564,9.49243719 C0.0953659449,9.43286665 0.158943242,9.39660631 0.21722243,9.30077543 L0.217222405,9.30077536 C0.166288132,9.14555644 0.172852819,8.97776216 0.235765824,8.826801 C0.312588391,8.826801 0.331131769,8.76982048 0.405305282,8.73097012 L0.42384866,8.6739896 C0.529810821,8.61700907 0.64107109,8.57038864 0.754980413,8.43829743 C0.913923655,8.37872688 1.04637636,8.41757724 1.22386298,8.39944707 L1.33512325,8.33987653 C1.49406649,8.33987653 1.62651919,8.41757724 1.79605865,8.39944707 C1.87817932,8.39944707 1.95500189,8.47455776 1.99208864,8.54966845 C2.08745459,8.58592879 2.16957526,8.54966845 2.28348459,8.56779862 C2.39739391,8.5108181 2.43448067,8.43829743 2.57488053,8.39944707 L2.63051066,8.282896 C2.64905404,8.23627557 2.72587661,8.23627557 2.80005012,8.19742522 C2.92190661,8.19742522 3.09144606,8.21814541 3.19475917,8.10159434 C3.54178525,7.99022331 3.87026795,8.10159434 4.23848646,8.14044469 C4.38683348,8.08346417 4.56696916,7.99022331 4.75240294,8.00835348 L4.8583651,7.95137296 C4.93253861,7.78820146 5.08088564,7.60171974 5.04379888,7.36343755 L5.1577082,7.26501665 C5.22393456,7.26501665 5.22393456,7.17954586 5.29810807,7.12515536 L5.3537382,7.12515536 L5.39082496,7.09148505 C5.40936834,6.68226129 5.40936834,6.2367772 5.42791172,5.79647316 C5.53122482,5.76021282 5.44645509,5.66697197 5.51268144,5.57114108 C5.60804739,5.57114108 5.60804739,5.44681994 5.7166586,5.42609975 C5.98951117,5.46495011 6.3391863,5.31472873 6.57230305,5.55042089 L7.03323846,5.55042089 L7.08621954,5.46495011 C7.10741197,5.33544892 7.08621954,5.21889785 7.14449872,5.05831637 L7.25046089,4.98061566 L7.28489859,4.86924464 L7.28489857,4.86924466 C7.31564002,4.81131514 7.36129067,4.7622184 7.41735128,4.72679335 C7.45443803,4.64909264 7.49152479,4.53513159 7.55775114,4.43153064 C7.65311708,4.41081045 7.61338127,4.2968494 7.69020384,4.22432873 C7.78292073,4.20360854 7.80146411,4.11813776 7.90742627,4.0792874 C8.0557733,4.0792874 8.15113924,4.22173871 8.34716924,4.26058907 C8.42134275,4.27871923 8.45842951,4.39009026 8.58028599,4.41081045 L8.63591613,4.41081045 L8.84254234,4.46779097 L8.84254235,4.46779097 C8.96293192,4.46961218 9.08198786,4.44295503 9.18956842,4.39009026 C9.25579477,4.37455012 9.2372514,4.22173871 9.31142491,4.17511828 C9.29288153,4.0248969 9.27433815,3.80474488 9.38559842,3.65193348 C9.40679085,3.61308312 9.54454166,3.63380331 9.54454166,3.54056245 C9.60282085,3.51984226 9.69553774,3.54056245 9.76971126,3.51984226 C9.8650772,3.49394202 9.93130355,3.47322183 9.98958274,3.39811114 L10.0081261,3.3385406 C10.0611072,3.2841501 10.0611072,3.22457955 10.1379298,3.16759902 C10.4107823,3.10284843 10.739265,2.96816719 11.0121176,3.08471826 C11.1048345,3.2841501 10.9909252,3.57682279 11.0862911,3.82287505 C11.1604646,3.8720855 11.226691,3.926476 11.2849702,4.0248969 C11.3564946,4.04302707 11.4147738,4.09741757 11.4518606,4.20360854 C11.5074907,4.2424589 11.573717,4.28130926 11.6902754,4.31756959 C11.7432565,4.33828978 11.7829923,4.27871923 11.8545168,4.2968494 C11.9419356,4.33828978 11.9604789,4.45225083 12.0717392,4.46779097 C12.0902826,4.50923135 12.0902826,4.59211211 12.1485618,4.63096247 C12.1671051,4.78118385 12.1485618,4.98061568 12.2041919,5.14896723 L12.2704183,5.19040761 C12.4002219,5.37170928 12.304856,5.62812163 12.4187653,5.83791356 C12.3657842,5.99590501 12.3445918,6.18756677 12.1856485,6.33001808 L12.1856485,6.33001815 C12.1637127,6.48527511 12.1699902,6.64309982 12.2041919,6.79622244 L12.2041919,6.79622243 C12.342987,6.88697484 12.506103,6.93563006 12.6730745,6.93608371 L12.7657914,7.01378443 C13.0042062,7.07076495 13.2744098,7.09148514 13.4624926,7.24947659 L13.5843491,7.24947659 C13.7538885,7.28832695 13.8492545,7.45926852 14.0452845,7.53437921 C14.0452845,7.60171983 14.0823712,7.69496069 14.0982656,7.7726614 C14.2148239,7.79079157 14.2148239,7.95396307 14.3366804,8.00835357 L14.3923106,8.00835357 C14.4452916,8.02907376 14.5247633,8.02907376 14.559201,8.08605428 C14.6254273,8.17929514 14.6068839,8.3605968 14.6254273,8.49527804 L14.7393366,8.65585952 C14.7207933,8.73097021 14.8135101,8.76982056 14.7976158,8.88378161 C14.8320535,8.92263197 14.8505969,8.98738256 14.9168232,9.04436309 L14.9168232,9.15832413 C14.9168232,9.21530466 14.9936458,9.21530466 15.0121892,9.32149563 C15.0678193,9.3396258 15.1234495,9.39919635 15.2188154,9.43286666 C15.3221285,9.41473649 15.3221285,9.51056737 15.4333888,9.52869754 C15.7062413,9.52869754 15.9605505,9.58567806 16.2413503,9.65301868 L16.3446634,9.73071939 C16.8029497,9.7099992 17.208255,9.80324006 17.6771375,9.80324006 C17.7539601,9.82396025 17.7725035,9.89907094 17.8837638,9.91720111 L18.1168805,9.91720111 C18.1963521,9.98454173 18.2784728,10.0208021 18.3552954,10.0803726 C18.3552954,10.1373531 18.3923821,10.1736135 18.4082765,10.2513142 C18.5592725,10.3160648 18.6996724,10.2513142 18.8692119,10.3549151 C18.9062986,10.4688762 19.0466985,10.5258567 19.123521,10.6475878 C19.3566378,10.6864382 19.563264,10.6475878 19.8175732,10.668308 C19.8917467,10.6864382 19.9102901,10.7615489 20.0347956,10.779679 L20.0347957,10.779679 C20.2373266,10.7207523 20.4250125,10.6210603 20.5857989,10.4870063 C20.6520253,10.4870063 20.6917611,10.4662861 20.7659346,10.448156 L20.8401081,10.3523251 C20.9354741,10.3341949 21.0202438,10.3160648 21.1315041,10.2875745 L21.22687,10.1917436 C21.5182659,10.0985028 21.8282053,10.0777826 22.1010578,10.0026719 C22.2494049,10.0026719 22.4454348,10.0026719 22.6149743,9.96382152 C22.943457,9.98454171 23.1209436,9.96382152 23.3567094,9.91720109 C23.4149886,9.87835073 23.4308829,9.80065002 23.4706188,9.70999919 L23.4706187,9.70999923 C23.5576791,9.60801057 23.6553344,9.51513555 23.7620143,9.43286709 C23.8176444,9.43286709 23.8547311,9.43286709 23.9315537,9.4121469 C23.995131,9.3577564 23.995131,9.25156542 24.0534102,9.17904475 L24.0534102,9.17904475 C24.1128988,9.16210875 24.1609005,9.1190076 24.1832138,9.06249368 L24.1832138,9.00292313 L24.090497,8.89932218 C24.0322178,8.78795116 23.9103613,8.67399011 23.8520821,8.49527847 C23.8732745,8.33987704 23.8520821,8.19742573 23.8732745,8.02907419 C23.9315537,8.008354 23.995131,8.008354 24.0136744,7.90475304 C24.0719536,7.86849271 24.1275837,7.82705233 24.238844,7.790792 C24.5858701,7.73381147 24.9170018,7.9539635 25.2825713,7.84777252 C25.367341,7.84777252 25.3858844,7.790792 25.4600579,7.75453166 L25.4971446,7.69496112 L25.611054,7.63798059 C25.7329105,7.53437964 25.8282764,7.45667893 25.955431,7.30645755 C26.0613932,7.26760719 26.1382157,7.26760719 26.249476,7.22098676 L26.3236495,7.14328605 C26.4269626,7.14328605 26.5223286,7.09148557 26.6150454,7.03191502 C26.6335888,6.88687369 26.7183586,6.79363283 26.7183586,6.62269126 L26.7369019,6.58643093 L26.7369019,6.58643095 C26.7725649,6.53498862 26.8262913,6.49812611 26.887898,6.48282999 L27.0653846,6.48282999 C27.2163807,6.40512928 27.2905542,6.23418771 27.4706899,6.10986657 L27.7620858,6.10986657 L27.8945385,6.01662571 C28.0720251,6.01662571 28.2574589,5.95964519 28.4773304,5.97777535 L28.5515039,5.90007464 C28.5515039,5.81719388 28.4932247,5.79647369 28.4534889,5.71877297 C28.3793154,5.71877297 28.3793154,5.64625231 28.3157381,5.58927178 C28.2203722,5.56855159 28.164742,5.46495064 28.0879195,5.36911976 L27.968712,5.31472926 L27.9104328,5.19040812 C27.8362593,5.15155776 27.7038066,5.17227795 27.6190369,5.23702855 L27.5448634,5.35357962 C27.4336031,5.35357962 27.3938673,5.44682048 27.2905542,5.503801 C27.232275,5.48308081 27.1607506,5.503801 27.083928,5.44682048 L26.9806149,5.36911976 L26.7554457,5.36911976 L26.5965025,5.48308081 L26.5965025,5.4830808 C26.5056855,5.52639207 26.406146,5.54939512 26.3051065,5.55042142 L26.1911972,5.46495064 L26.1541105,5.42610028 C26.1355671,5.36911976 26.0799369,5.35357961 26.0613936,5.25774873 C26.0613936,5.0583169 26.1170237,4.82003471 26.1541105,4.61024278 L26.2123896,4.55585228 C26.230933,4.37455062 26.3051065,4.26058957 26.3527895,4.08187793 L26.4110687,4.04302757 C26.4296121,3.85136581 26.5594157,3.72704467 26.6335892,3.55869312 L26.6839213,3.51984276 C26.9064418,3.49394252 27.1236642,3.51984276 27.3753244,3.51984276 C27.4336036,3.49394252 27.5077771,3.49394252 27.5475129,3.43437198 C27.6402298,3.29969074 27.7806296,3.18831972 27.9130823,3.04586841 C27.9872558,2.893057 27.9501691,2.75060569 27.9872558,2.57966412 C28.0720256,2.45793301 28.1091123,2.26886127 28.2018292,2.10568977 L28.2601084,2.06683941 C28.3157385,2.02798905 28.3157385,1.93215817 28.3157385,1.83891732 C28.336931,1.81819713 28.4217007,1.73531637 28.4561384,1.69646601 L28.5144176,1.58250496 C28.4773308,1.46854391 28.532961,1.36494296 28.4958742,1.23026172 L28.4561384,1.19400139 C28.3634215,1.19400139 28.2786518,1.1732812 28.1647425,1.1732812 L28.0349388,1.0101097 L28.0349388,0.901328297 C28.0905689,0.84175775 28.1276557,0.758876988 28.1832858,0.683766298 L28.3342819,0.663046108 C28.4005083,0.663046108 28.4402441,0.626785774 28.4932252,0.569805251 C28.5117685,0.530954894 28.5117685,0.455844204 28.5700477,0.406633752 L28.681308,0.388503585 L28.7077985,0.331523061 L28.7475343,0.292672704 L28.7475344,0.292672689 C28.857822,0.253341235 28.9745285,0.234030908 29.0919114,0.235692166 C29.1872774,0.235692166 29.2058207,0.139861285 29.317081,0.121731119 C29.4044998,0.121731119 29.4415865,0.0569805236 29.5528468,0.0362603332 C29.6482128,0.0362603332 29.7886126,0.0569805236 29.8972238,0 C30.0111332,0.0569805236 30.1170953,0.0181301666 30.246899,0.0362603332 L30.246899,0.0362603409 C30.3820902,0.0665446798 30.5076164,0.128798654 30.6124685,0.217562007 C30.6707476,0.217562007 30.7184306,0.17871165 30.7714117,0.121731126 C30.8667776,0.0725206741 30.9409512,0.121731126 31.0628076,0.0932408645 C31.0998944,0.17871165 31.2323471,0.160581483 31.2879772,0.235692173 C31.327713,0.25382234 31.327713,0.370373411 31.3939394,0.406633744 C31.4866563,0.49210453 31.523743,0.606065577 31.6720901,0.699306434 C31.6906334,0.777007147 31.6720901,0.880608099 31.7568598,0.937588623 L31.815139,0.97643898 C31.8707691,1.01269931 31.8522257,1.15774065 31.9263993,1.21472117 L31.9263993,1.21472118 C32.0295195,1.27395462 32.1010998,1.37420352 32.1224293,1.4892637 C32.1621651,1.56696442 32.2177952,1.64207511 32.2734254,1.7171858 C32.3317045,1.7171858 32.3687913,1.75603616 32.453561,1.7715763 C32.4721044,1.81819673 32.4721044,1.91661763 32.5462779,1.9347478 C32.5648213,2.0875592 32.6204514,2.22742049 32.6601872,2.40095208 C32.697274,2.40095208 32.744957,2.47606277 32.7635003,2.54081337 L32.8562172,2.63664425 C33.091983,2.71434496 33.4019224,2.6754946 33.6641787,2.69621479 C33.7648428,2.76873546 33.8628578,2.80758582 33.9555747,2.89564663 C34.0297482,2.89564663 34.1516047,2.87492644 34.2469706,2.93190696 C34.3026007,3.00960767 34.3794233,3.10284853 34.5012798,3.16759913 C34.5198232,3.22457965 34.5383665,3.26343001 34.6125401,3.30228036 C34.6496268,3.35926089 34.6708192,3.41624141 34.7052569,3.51984236 L34.7238003,3.63380341 L34.7900267,3.65193358 C34.8668492,3.67265377 34.9410228,3.76589462 35.0151963,3.82287515 C35.2112263,3.82287515 35.3622223,3.72963429 35.5794448,3.67265377 C35.6721617,3.59495305 35.6721617,3.47322193 35.8125615,3.43437158 C35.8125615,3.35926089 35.9079275,3.32300055 35.8893841,3.20644948 C35.9635576,3.10284853 36.0562745,3.08471836 36.1993234,3.04586801 C36.2920403,2.91377679 36.4695269,2.80758582 36.6019796,2.69621479 L36.7132399,2.69621479 L36.8192021,2.61851408 L36.8721831,2.61851408 L36.9860925,2.71693498 C37.0046358,2.77132548 37.0046358,2.81017584 36.9860925,2.89564663 L36.9860924,2.89564665 C36.9330257,2.94152002 36.8936616,3.00059321 36.8721831,3.06658823 C36.8721831,3.17018918 36.9092699,3.24788989 36.8721831,3.35926091 L36.8721831,3.35926093 C36.9553452,3.50233627 36.9632278,3.67574079 36.8933755,3.82546521 L36.8350964,3.87208564 C36.6946965,4.4341208 36.8350964,5.07903673 36.7609228,5.6851023 C36.7344323,5.74208282 36.7132399,5.85604387 36.6549607,5.92338449 C36.6019796,5.94410468 36.5807872,5.98036501 36.5437004,6.07619589 C36.3105837,6.0554757 36.0748179,6.03734553 35.8496483,6.15389661 L35.8311049,6.27562772 C35.7728257,6.35073841 35.6324258,6.36886858 35.5767957,6.48282963 C35.5767957,6.53981015 35.6324258,6.64600113 35.6324258,6.71852179 C35.6721616,6.87392322 35.8311049,6.97752417 35.8311049,7.18472608 C35.98475,7.38674793 35.9291199,7.67942062 36.0032934,7.95655317 C35.9291199,8.03166386 35.8708407,8.14562491 35.7781238,8.24145579 C35.7304408,8.40462729 35.7781238,8.55225864 35.6748107,8.71543014 L35.6377239,8.7542805 C35.5820938,8.77500069 35.542358,8.77500069 35.4681845,8.7542805 L35.4310977,8.64031945 L35.4310977,8.64031946 C35.3794445,8.60225489 35.3180051,8.57894399 35.2536111,8.57297884 C35.1582452,8.67657979 35.1211584,8.83198122 35.0178453,8.99256269 C34.8853926,9.12206388 34.7264494,9.25674512 34.5939967,9.43804679 C34.5939967,9.5157475 34.6522758,9.53387767 34.6893626,9.60898836 C34.6893626,9.71258931 34.6310834,9.7333095 34.5966457,9.82914038 L34.4827364,9.90425107 C34.2098838,9.96900167 33.9555746,9.90425107 33.6668278,9.84727055 C33.6085486,9.86540071 33.534375,9.86540071 33.4972883,9.92238124 C33.4575525,9.98972186 33.4204657,10.0467024 33.3727828,10.1606634 L33.3727828,10.217644 L33.2800659,10.3212449 C33.2615225,10.3782254 33.2058924,10.3989456 33.187349,10.4921865 L33.187349,10.549167 C33.187349,10.6734881 33.0284057,10.7097485 33.0072133,10.8444297 L32.9701265,10.9583908 C32.8005871,11.0438615 32.8562172,11.1578226 32.8005871,11.2329333 L32.8005871,11.2329333 C32.6869481,11.2868657 32.5967573,11.3787209 32.5462779,11.4919357 L32.5462779,11.5489162 L32.5462779,11.5489162 C32.3297823,11.7375088 32.046538,11.8360159 31.7568598,11.8234587 C31.6720901,11.8623091 31.5979166,11.8778492 31.5237431,11.9762701 C31.5237431,12.0410207 31.4866563,12.0798711 31.4654639,12.1549817 C31.4283771,12.2119623 31.4124828,12.2508126 31.325064,12.3259233 C31.325064,12.3906739 31.2879773,12.4295243 31.2694339,12.507225 L31.1555246,12.618596 C31.1369812,12.6574464 31.1369812,12.7429171 31.081351,12.7817675 L31.0177737,12.7817675 C30.9780379,12.8206179 30.9594946,12.8775984 30.9038644,12.9345789 C30.7528683,12.9708392 30.6707477,13.0744402 30.5012082,13.0744402 C30.4800158,12.9889694 30.4243856,12.9708392 30.3872989,12.8568782 L30.3872989,12.8568782 C30.4251665,12.8038021 30.4446612,12.7402676 30.442929,12.6755765 L30.5197516,12.6004658 C30.6707477,12.3259233 30.4826648,11.9762701 30.5939251,11.6680573 L30.686642,11.6033067 C30.7528683,11.5644563 30.734325,11.4349551 30.8084985,11.3753846 L30.8084985,11.3753908 C30.807927,11.2756028 30.7900122,11.176636 30.7555195,11.0827177 C30.6495573,11.0645875 30.6310139,11.1578284 30.5171046,11.1785485 C30.4641235,11.1785485 30.4243877,11.1966787 30.339618,11.2148089 C30.2442521,11.2925096 30.2283577,11.3961105 30.1727276,11.5074816 C30.1541842,11.5670521 30.095905,11.5851823 30.0402749,11.6706531 C30.0402749,11.7276336 29.9925919,11.766484 29.9740486,11.8441847 C29.8627883,11.8985752 29.748879,11.9736859 29.5713923,12.0436165 L29.5713926,12.0436162 C29.4498643,12.1866871 29.3458463,12.3431489 29.2614532,12.5098205 C29.2799966,12.5823412 29.203174,12.5823412 29.2243665,12.6781721 C29.150193,12.7455127 29.0733704,12.8024932 28.9886007,12.8983241 C28.9144272,12.8983241 28.8773404,12.9527146 28.7634311,12.9708448 C28.7078009,12.9708448 28.660118,12.9527146 28.5832954,12.9345844 C28.5303143,12.9345844 28.4508427,12.9527146 28.416405,12.991565 C28.3130919,13.0381854 28.416405,13.1340163 28.3793182,13.2272571 C28.416405,13.3412182 28.4932276,13.4085588 28.564752,13.5043897 C28.6786613,13.54065 28.8402536,13.5043897 28.9700573,13.5225198 L28.9700573,13.5225198 C29.1388513,13.5585361 29.2869003,13.6568915 29.3833097,13.7970624 L29.3833097,14.0741949 L29.2799966,14.1311754 L29.3382758,14.2451365 C29.4045021,14.2451365 29.4389398,14.2839868 29.5157624,14.2839868 C29.6270227,14.1881559 29.7674225,14.0767849 29.8442451,13.9136134 L29.9555054,13.8928932 C30.1144486,13.7245417 30.3608106,13.5251099 30.6522066,13.54324 L30.7740631,13.6934614 C30.86678,13.6934614 30.9436025,13.7426719 31.065459,13.7970624 L31.1237382,13.760802 C31.213806,13.760802 31.2720852,13.8566329 31.4151341,13.8566329 C31.4681152,13.8359127 31.507851,13.8566329 31.5820246,13.8359127 C31.6561981,13.8359127 31.6773905,13.8928932 31.7595112,13.9317436 L31.799247,14.0534747 L31.799247,14.0534748 C31.6273395,14.2659927 31.4092756,14.4385028 31.1608249,14.5585294 L31.1396325,14.6155099 C31.0840024,14.6724904 30.9436025,14.6362301 30.8482366,14.6932106 L30.8111498,14.7398311 C30.774063,14.8149417 30.7926064,14.947033 30.7184329,15.0247337 L30.6522066,15.0661741 L30.6522066,15.066174 C30.6075833,15.1384066 30.5703181,15.2147463 30.5409463,15.2940957 C30.3873012,15.4184169 30.2124636,15.5142477 30.1170977,15.7499399 C30.0588185,15.8069204 29.9740487,15.8276406 29.9581544,15.9416017 C29.8998752,15.9597318 29.8813319,16.0348425 29.8257017,16.1203133 C29.8257017,16.2342744 29.936962,16.2161442 29.9740487,16.3119751 C30.0588185,16.3870858 30.2124636,16.3482354 30.3210748,16.3689556 C30.4058446,16.4725565 30.5197539,16.4052159 30.575384,16.5295371 L30.6866443,16.5865176 C30.7528706,16.6434981 30.7343273,16.7859494 30.7528706,16.8791903 L30.8853233,17.0320017 C30.9038667,17.3065442 31.0363194,17.5629566 30.9992327,17.8582193 L31.017776,17.9151998 C31.0998967,18.0110307 31.2508928,18.0110307 31.3462587,18.1742022 L31.3462587,18.1742022 C31.4224737,18.281708 31.4822637,18.3994958 31.5237454,18.5238554 L31.6376547,18.6378165 C31.6747414,18.7310573 31.7595112,18.8553785 31.7595112,18.9874697 L31.7595111,18.9874695 C31.8275628,19.0844234 31.9172341,19.165012 32.0217674,19.2231617 L32.0879938,19.3578429 C32.0217674,19.4821641 31.8707713,19.5391446 31.7595111,19.6505156 C31.6932847,19.6712358 31.6747413,19.7282163 31.5820245,19.7489365 L31.412485,19.7489365 L31.3462587,19.8525375 L31.3912926,19.8913878 C31.5052019,19.9276482 31.656198,19.8706677 31.7965978,19.8913878 L31.7965979,19.8913879 C31.8947296,20.0189842 32.019301,20.1248931 32.1621673,20.2021908 C32.1992541,20.4301129 32.2760767,20.6476749 32.2575333,20.9066772 L32.1992541,21.0750288 C32.1065372,21.2200701 32.1992541,21.427272 32.1992541,21.6085737 L32.1621673,21.6655542 C32.1065372,21.7044046 32.0217675,21.7380749 31.9290506,21.7795153 C31.852228,21.8675761 31.8336846,21.9970773 31.7197753,22.0903181 C31.6932848,22.29234 31.5820245,22.4425613 31.507851,22.623863 C31.507851,22.7378241 31.4283794,22.7740844 31.412485,22.9191257 C31.412485,22.9942364 31.3462587,23.0330868 31.3277153,23.1444578 C31.3277153,23.2040283 31.3277153,23.3076293 31.2879795,23.38274 C31.2508928,23.4034602 31.1767192,23.4034602 31.1369834,23.4604407 C31.1369834,23.496701 31.1369834,23.600302 31.065459,23.6184322 C31.017776,23.7712436 31.0840023,23.9136949 31.0840023,24.0846364 C31.0363194,24.1985975 30.9621459,24.2840683 30.9250591,24.4368797 L30.8853233,24.47573 L30.8296932,24.4938602 L30.7926064,24.5301205 C30.7555197,24.5974611 30.7926064,24.6337215 30.7555197,24.7114222 L30.6522065,24.7891229 C30.5568406,24.8461034 30.5568406,25.0429452 30.4641237,25.120646 L30.3608106,25.1983467 C30.2680937,25.234607 30.1939202,25.1983467 30.0800109,25.2164768 L29.9952411,25.3200778 C29.9581544,25.3770583 29.9952411,25.4702992 29.9952411,25.5454099 L29.8998752,25.6127505 C29.7674225,25.6904512 29.7329848,25.8613928 29.5713925,25.9831239 C29.5157624,25.9831239 29.4786756,26.0219742 29.4045021,26.0401044 L29.3568191,26.0789548 C29.3382757,26.1566555 29.4574832,26.1178051 29.4786756,26.213636 L29.4415889,26.2498963 L29.2614532,26.2498963 C29.2243664,26.3716274 29.057476,26.3716274 28.9886006,26.4855885 C28.9886006,26.64876 28.8561479,26.7445909 28.7448876,26.8197016 L28.6813103,26.8197016 C28.5488576,26.980283 28.3157409,27.0372636 28.0879222,27.0217234 L27.928979,27.1512246 C27.8177187,27.1719448 27.7223528,27.1149643 27.584602,27.192665 L27.5263228,27.2470555 C27.3753267,27.2859059 27.2534702,27.4672075 27.0653874,27.521598 L27.0018101,27.4853377 C26.9249875,27.5060579 26.8879008,27.5630384 26.7739914,27.5811686 L26.7210104,27.5604484 C26.6998179,27.5034678 26.7210104,27.4646175 26.6998179,27.3895068 L26.5965048,27.3506564 C26.5594181,27.3713766 26.5594181,27.4464873 26.5223313,27.5060579 L26.4269654,27.5785785 L26.2494788,27.5785785 L26.2494787,27.5785785 C26.1560706,27.589843 26.0730931,27.642338 26.0243091,27.7210299 C26.0243091,27.7987306 25.9580828,27.7987306 25.9395394,27.8945614 C25.8070867,27.9981624 25.5951624,27.951542 25.4229739,27.9981624 L25.3699928,28.0914033 L25.3699928,28.0914033 C25.3162216,28.1277573 25.252578,28.1475971 25.1872081,28.1483838 C25.0759478,28.169104 25.0176686,28.283065 24.8958121,28.3478156 L24.8958122,28.3478156 C24.7859062,28.3365683 24.6748463,28.3435738 24.5673295,28.3685358 L24.5143484,28.4255163 C24.4534201,28.4462365 24.4348768,28.503217 24.3421599,28.5187572 C24.2759335,28.5187572 24.2388468,28.5394774 24.1646733,28.5601976 L24.103745,28.6637985 L24.1646733,28.7000589 C24.199111,28.7570394 24.2388468,28.8166099 24.2759335,28.9279809 C24.2759335,29.0315819 24.1805676,29.1092826 24.1805676,29.2232437 C24.1620242,29.2802242 24.0322206,29.259504 23.9951338,29.3475648 L23.9951338,29.3993653 C24.2176543,29.5003762 24.4375258,29.3993653 24.689186,29.482246 L24.7633595,29.5754869 C24.7633595,29.6324674 24.7633595,29.7360684 24.7262727,29.8111791 L24.6044162,29.8500294 C24.5302427,29.9070099 24.4719635,30.0028408 24.3792466,30.1064418 C24.3607033,30.241123 24.4375258,30.4379648 24.3421599,30.5726461 L24.2203034,30.6296266 L24.1646733,30.7513577 L24.1646732,30.7513577 C24.067556,30.8226259 23.9537034,30.8689331 23.8335415,30.886039 C23.8149981,30.9611496 23.7010888,30.9430195 23.6666511,31 L23.271942,31 L23.2692907,30.997407 Z" id="形状"></path>
                </g>
            </g>
        </g>
    </g>
</svg>