<?xml version="1.0" encoding="UTF-8"?>
<svg width="40px" height="40px" viewBox="0 0 40 40" version="1.1" xmlns="http://www.w3.org/2000/svg" xmlns:xlink="http://www.w3.org/1999/xlink">
    <title>形状 2</title>
    <g id="页面-1" stroke="none" stroke-width="1" fill="none" fill-rule="evenodd">
        <g id="大屏控件" transform="translate(-575.000000, -193.000000)">
            <g id="分组-27" transform="translate(574.000000, 193.000000)">
                <g id="中国地图" transform="translate(1.000000, 0.000000)">
                    <g id="形状-2" transform="translate(1.500000, 2.500000)">
                        <circle id="椭圆形" fill="#CECECE" cx="18.5" cy="17.5" r="2.5"></circle>
                        <polygon id="三角形" fill="#CECECE" points="18.5 4.5 19.5 12.5 17.5 12.5"></polygon>
                        <rect id="矩形" fill="#CECECE" x="18" y="12.5" width="1" height="4.5"></rect>
                        <path d="M18.5,0 C20.6295702,0 22.6750994,0.359822212 24.5791069,1.02198596 L23.5408154,4.90020641 C21.9708001,4.3180543 20.2725429,4 18.5,4 C10.4918711,4 4,10.4918711 4,18.5 C4,24.0290942 7.09468014,28.8353872 11.6464117,31.2812502 L9.420168,34.6222655 C3.79679825,31.4484512 0,25.4176205 0,18.5 C0,8.28273213 8.28273213,0 18.5,0 Z M31.9481842,23.9321018 L35.4394713,25.9482576 C33.8234422,29.6182603 31.0497181,32.6635862 27.580835,34.6216994 L25.3535883,31.2812502 C28.3240365,29.6850864 30.6739507,27.0836547 31.9481842,23.9321018 Z M37,18.5 C37,20.792213 36.5831172,22.9870578 35.8210336,25.0128523 L32.2957511,22.9766906 C32.7529368,21.5667922 33,20.0622484 33,18.5 C33,12.621128 29.5013879,7.55940064 24.472664,5.28331819 L25.5186255,1.37782218 C32.255478,4.1422781 37,10.7670678 37,18.5 Z" id="合并形状" fill="#F46D00"></path>
                        <path d="M37,18.5 C37,20.792213 36.5831172,22.9870578 35.8210336,25.0128523 L32.2953735,22.977855 C32.7528008,21.5676205 33,20.0626785 33,18.5 C33,12.6210871 29.5013392,7.55933015 24.472559,5.28327064 L25.5193532,1.37812083 C32.2558197,4.1427552 37,10.7673463 37,18.5 Z" id="合并形状" fill="#1A4E74"></path>
                    </g>
                </g>
            </g>
        </g>
    </g>
</svg>