<?xml version="1.0" encoding="UTF-8"?>
<svg width="40px" height="40px" viewBox="0 0 40 40" version="1.1" xmlns="http://www.w3.org/2000/svg" xmlns:xlink="http://www.w3.org/1999/xlink">
    <title>形状 2</title>
    <g id="页面-1" stroke="none" stroke-width="1" fill="none" fill-rule="evenodd">
        <g id="大屏控件" transform="translate(-483.000000, -193.000000)">
            <g id="分组-26" transform="translate(482.000000, 193.000000)">
                <g id="中国地图" transform="translate(1.000000, 0.000000)">
                    <g id="形状-2" transform="translate(1.500000, 3.500000)">
                        <path d="M22.853,26 L18.5,34 L14.147,26 L22.853,26 Z M27.478,17.5 L23.397,25 L13.603,25 L9.522,17.5 L27.478,17.5 Z M32.103,9 L28.022,16.5 L8.978,16.5 L4.897,9 L32.103,9 Z M37,0 L32.647,8 L4.353,8 L0,0 L37,0 Z" id="合并形状" fill="#CECECE"></path>
                        <path d="M19.5,26 L18.5,32 L17,26 L19.5,26 Z" id="合并形状" fill="#1A4E74"></path>
                        <path d="M23.5,17.5 L19.5,25 L17,25 L12.5,17.5 L23.5,17.5 Z" id="合并形状" fill="#F46D00"></path>
                        <path d="M29,9 L24,16.5 L12.5,16.5 L8.5,9 L29,9 Z" id="合并形状" fill="#1A4E74"></path>
                        <path d="M36,0 L29.5,8 L8,8 L1,0 L36,0 Z" id="合并形状" fill="#F46D00"></path>
                    </g>
                </g>
            </g>
        </g>
    </g>
</svg>