<?xml version="1.0" encoding="UTF-8"?>
<svg width="40px" height="40px" viewBox="0 0 40 40" version="1.1" xmlns="http://www.w3.org/2000/svg" xmlns:xlink="http://www.w3.org/1999/xlink">
    <title>形状 2</title>
    <g id="页面-1" stroke="none" stroke-width="1" fill="none" fill-rule="evenodd">
        <g id="大屏控件" transform="translate(-1117.000000, -101.000000)">
            <g id="分组-21" transform="translate(1116.000000, 101.000000)">
                <g id="中国地图" transform="translate(1.000000, 0.000000)">
                    <g id="形状-2" transform="translate(1.500000, 1.500000)">
                        <rect id="矩形" fill="#FFF1E5" x="0" y="0" width="6" height="6"></rect>
                        <rect id="矩形copycopycopycopycopycopycopycopycopycopy" fill="#FFD0AB" x="6" y="0" width="6" height="6"></rect>
                        <rect id="矩形copycopycopycopycopycopycopycopycopycopycopy" fill="#FFDBBF" x="12" y="0" width="6" height="6"></rect>
                        <rect id="矩形copycopycopycopycopycopycopycopycopycopycopycopy" fill="#FFF1E5" x="18" y="0" width="6" height="6"></rect>
                        <rect id="矩形copycopycopycopycopycopycopycopycopycopycopycopycopy" fill="#FFD0AB" x="24" y="0" width="6.5" height="6"></rect>
                        <rect id="矩形copycopycopycopycopycopycopycopycopycopycopycopycopycopy" fill="#F46D00" x="30.5" y="0" width="6.5" height="6"></rect>
                        <rect id="矩形" fill="#FFBE8A" x="0" y="6" width="6" height="6"></rect>
                        <rect id="矩形copycopycopycopycopycopycopycopycopycopy" fill="#FFF1E5" x="6" y="6" width="6" height="6"></rect>
                        <rect id="矩形copycopycopycopycopycopycopycopycopycopycopy" fill="#FFDBBF" x="12" y="6" width="6" height="6"></rect>
                        <rect id="矩形copycopycopycopycopycopycopycopycopycopycopycopy" fill="#FFD0AB" x="18" y="6" width="6" height="6"></rect>
                        <rect id="矩形copycopycopycopycopycopycopycopycopycopycopycopycopy" fill="#FFD0AB" x="24" y="6" width="6.5" height="6"></rect>
                        <rect id="矩形copycopycopycopycopycopycopycopycopycopycopycopycopycopy" fill="#FFBE8A" x="30.5" y="6" width="6.5" height="6"></rect>
                        <rect id="矩形" fill="#FFDBBF" x="0" y="12" width="6" height="6"></rect>
                        <rect id="矩形copycopycopycopycopycopycopycopycopycopy" fill="#FFBE8A" x="6" y="12" width="6" height="6"></rect>
                        <rect id="矩形copycopycopycopycopycopycopycopycopycopycopy" fill="#F46D00" x="12" y="12" width="6" height="6"></rect>
                        <rect id="矩形copycopycopycopycopycopycopycopycopycopycopycopy" fill="#FFDBBF" x="18" y="12" width="6" height="6"></rect>
                        <rect id="矩形copycopycopycopycopycopycopycopycopycopycopycopycopy" fill="#FFF1E5" x="24" y="12" width="6.5" height="6"></rect>
                        <rect id="矩形copycopycopycopycopycopycopycopycopycopycopycopycopycopy" fill="#F46D00" x="30.5" y="12" width="6.5" height="6"></rect>
                        <rect id="矩形" fill="#FFD0AB" x="0" y="18" width="6" height="6"></rect>
                        <rect id="矩形copycopycopycopycopycopycopycopycopycopy" fill="#FFDBBF" x="6" y="18" width="6" height="6"></rect>
                        <rect id="矩形copycopycopycopycopycopycopycopycopycopycopy" fill="#FFA155" x="12" y="18" width="6" height="6"></rect>
                        <rect id="矩形copycopycopycopycopycopycopycopycopycopycopycopy" fill="#FFF1E5" x="18" y="18" width="6" height="6"></rect>
                        <rect id="矩形copycopycopycopycopycopycopycopycopycopycopycopycopy" fill="#FFDBBF" x="24" y="18" width="6.5" height="6"></rect>
                        <rect id="矩形copycopycopycopycopycopycopycopycopycopycopycopycopycopy" fill="#FFD0AB" x="30.5" y="18" width="6.5" height="6"></rect>
                        <rect id="矩形" fill="#FFDBBF" x="0" y="24" width="6" height="6"></rect>
                        <rect id="矩形copycopycopycopycopycopycopycopycopycopy" fill="#FFBE8A" x="6" y="24" width="6" height="6"></rect>
                        <rect id="矩形copycopycopycopycopycopycopycopycopycopycopy" fill="#FFF1E5" x="12" y="24" width="6" height="6"></rect>
                        <rect id="矩形copycopycopycopycopycopycopycopycopycopycopycopy" fill="#FFD0AB" x="18" y="24" width="6" height="6"></rect>
                        <rect id="矩形copycopycopycopycopycopycopycopycopycopycopycopycopy" fill="#F46D00" x="24" y="24" width="6.5" height="6"></rect>
                        <rect id="矩形copycopycopycopycopycopycopycopycopycopycopycopycopycopy" fill="#FFBE8A" x="30.5" y="24" width="6.5" height="6"></rect>
                        <rect id="矩形" fill="#FFF1E5" x="0" y="30" width="6" height="6"></rect>
                        <rect id="矩形copycopycopycopycopycopycopycopycopycopy" fill="#FFBE8A" x="6" y="30" width="6" height="6"></rect>
                        <rect id="矩形copycopycopycopycopycopycopycopycopycopycopy" fill="#F46D00" x="12" y="30" width="6" height="6"></rect>
                        <rect id="矩形copycopycopycopycopycopycopycopycopycopycopycopy" fill="#FFDBBF" x="18" y="30" width="6" height="6"></rect>
                        <rect id="矩形copycopycopycopycopycopycopycopycopycopycopycopycopy" fill="#FFF1E5" x="24" y="30" width="6.5" height="6"></rect>
                        <rect id="矩形copycopycopycopycopycopycopycopycopycopycopycopycopycopy" fill="#F46D00" x="30.5" y="30" width="6.5" height="6"></rect>
                    </g>
                </g>
            </g>
        </g>
    </g>
</svg>