<?xml version="1.0" encoding="UTF-8"?>
<svg width="40px" height="40px" viewBox="0 0 40 40" version="1.1" xmlns="http://www.w3.org/2000/svg" xmlns:xlink="http://www.w3.org/1999/xlink">
    <title>形状 2</title>
    <g id="页面-1" stroke="none" stroke-width="1" fill="none" fill-rule="evenodd">
        <g id="大屏控件" transform="translate(-845.000000, -101.000000)">
            <g id="分组-18" transform="translate(844.000000, 101.000000)">
                <g id="中国地图" transform="translate(1.000000, 0.000000)">
                    <g id="形状-2" transform="translate(1.500000, 2.000000)">
                        <path d="M26.7890492,29.7473963 L28.5622438,31.5185499 C25.7443398,33.9969554 22.0476973,35.5 18,35.5 C13.9523027,35.5 10.2556602,33.9969554 7.43775624,31.5185499 L9.2109508,29.7473963 C11.5726658,31.7748852 14.6432625,33 18,33 C21.3567375,33 24.4273342,31.7748852 26.7890492,29.7473963 Z M3.55673915,12.607163 L5.72994,13.8622823 C4.94034531,15.5779428 4.5,17.4875473 4.5,19.5 C4.5,23.2390351 6.0200613,26.6230409 8.47593143,29.0677648 L6.70818732,30.8355623 C3.79989226,27.9384219 2,23.9294046 2,19.5 C2,17.0320052 2.5587844,14.6945215 3.55673915,12.607163 Z M34,19.5 C34,23.9294046 32.2001077,27.9384219 29.2918127,30.8355623 L27.5240686,29.0677648 C29.9799387,26.6230409 31.5,23.2390351 31.5,19.5 C31.5,17.6659544 31.1342686,15.9173299 30.4717586,14.3230795 L32.653091,13.064484 C33.5192081,15.0337166 34,17.2107108 34,19.5 Z M23.2379586,26.1947824 L25.0159088,27.9725123 C23.1117283,29.551091 20.6666789,30.5 18,30.5 C15.3333211,30.5 12.8882717,29.551091 10.9840912,27.9725123 L12.7620414,26.1947824 C14.2055381,27.3257552 16.0240299,28 18,28 C19.9759701,28 21.7944619,27.3257552 23.2379586,26.1947824 Z M29,19.5 C29,22.5487318 27.7597149,25.3077794 25.7561923,27.3000954 L23.9883935,25.5323419 C25.5395226,23.9924432 26.5,21.8583874 26.5,19.5 C26.5,18.5776715 26.3530979,17.6896538 26.0814148,16.8580681 L28.2837702,15.5872681 C28.7465693,16.8029452 29,18.1218766 29,19.5 Z M7.9068004,15.1194963 L10.0906542,16.3805624 C9.70943709,17.3463535 9.5,18.3987184 9.5,19.5 C9.5,21.8583874 10.4604774,23.9924432 12.0116065,25.5323419 L10.2438077,27.3000954 C8.24028513,25.3077794 7,22.5487318 7,19.5 C7,17.9431113 7.32344337,16.4617668 7.9068004,15.1194963 Z M19.6368238,22.594464 L21.4513322,24.4085976 C20.4751936,25.0962025 19.2847528,25.5 18,25.5 C16.7152472,25.5 15.5248064,25.0962025 14.5486678,24.4085976 L16.3631762,22.594464 C16.8516143,22.8533611 17.4086825,23 18,23 C18.5913175,23 19.1483857,22.8533611 19.6368238,22.594464 Z M24,19.5 C24,21.1678999 23.319443,22.6768473 22.2208698,23.7643011 L20.4531768,21.9963833 C21.098625,21.3620371 21.4991743,20.4793074 21.4999987,19.50302 L23.8471405,18.1483705 C23.9471531,18.5827833 24,19.0352201 24,19.5 Z M12.2905601,17.6502095 L14.5429376,18.9501788 C14.5146754,19.1292992 14.5,19.3129358 14.5,19.5 C14.5,20.4774869 14.9007095,21.3613831 15.5468232,21.9963833 L13.7791302,23.7643011 C12.680557,22.6768473 12,21.1678999 12,19.5 C12,18.8545249 12.1019257,18.2328557 12.2905601,17.6502095 Z M23.5326637,17.1744212 L21.3373371,18.442288 C20.9886542,17.3410994 20.1100251,16.4756034 19.0008388,16.1451891 L19.0008069,13.5830939 C21.0510588,13.9273493 22.748627,15.3114077 23.5326637,17.1744212 Z M18,13.5 L18,16 L18,16 C16.6148834,16 15.4176914,16.8046007 14.8503121,17.9719139 L12.6815103,16.7200062 C13.6840381,14.8059732 15.6895059,13.5 18,13.5 Z M27.8824344,14.6634718 L25.7104494,15.9176044 C24.4927209,13.3011073 21.9823636,11.4077438 19.0000759,11.058212 L19.0007248,8.54490836 C22.9113343,8.89757173 26.2317001,11.2968888 27.8824344,14.6634718 Z M18,8.5 L18,11 L18,11 C14.7639333,11 11.9502384,12.8083887 10.5143566,15.4697249 L8.34851732,14.2184975 C10.2174293,10.8104706 13.838895,8.5 18,8.5 Z M32.2199346,12.1583282 L30.0516167,13.4100854 C27.9679402,9.29473928 23.8383309,6.39094998 19.0005905,6.0365192 L19.0002994,3.53076045 C24.7649123,3.88635332 29.7035903,7.29434214 32.2199346,12.1583282 Z M18,3.5 L18,6 L18,6 C12.9133442,6 8.4837557,8.81323959 6.18225591,12.9686974 L4.01686619,11.7176683 C6.75103341,6.81547599 11.9883313,3.5 18,3.5 Z" id="合并形状" fill="#CECECE"></path>
                        <polygon id="路径-17" stroke="#22364F" points="18.5 6 1.5 17.5 12 29 27 30.5 34.5 16"></polygon>
                        <circle id="椭圆形" stroke="#253951" fill="#FFFFFF" cx="18.5" cy="6" r="1"></circle>
                        <circle id="椭圆形" stroke="#253951" fill="#FFFFFF" cx="1" cy="17.5" r="1"></circle>
                        <circle id="椭圆形copycopycopycopycopycopy" stroke="#253951" fill="#FFFFFF" cx="12" cy="29" r="1"></circle>
                        <circle id="椭圆形copycopycopycopycopycopy" stroke="#253951" fill="#FFFFFF" cx="27" cy="30.5" r="1"></circle>
                        <circle id="椭圆形copycopycopycopycopycopy" stroke="#253951" fill="#FFFFFF" cx="35" cy="16" r="1"></circle>
                        <polygon id="路径-18" stroke="#F46D00" points="18 1 7 19.5 8 34.5 25 27 35 16"></polygon>
                        <circle id="椭圆形" stroke="#F46D00" fill="#FFFFFF" cx="18" cy="1" r="1"></circle>
                        <circle id="椭圆形copycopycopycopycopycopycopy" stroke="#F46D00" fill="#FFFFFF" cx="7" cy="19" r="1"></circle>
                        <circle id="椭圆形copycopycopycopycopycopycopycopy" stroke="#F46D00" fill="#FFFFFF" cx="8" cy="34" r="1"></circle>
                        <circle id="椭圆形copycopycopycopycopycopycopycopycopy" stroke="#F46D00" fill="#FFFFFF" cx="25" cy="27" r="1"></circle>
                        <circle id="椭圆形copycopycopycopycopycopycopycopycopycopy" stroke="#F46D00" fill="#FFFFFF" cx="35" cy="16" r="1"></circle>
                    </g>
                </g>
            </g>
        </g>
    </g>
</svg>