<?xml version="1.0" encoding="UTF-8"?>
<svg width="40px" height="40px" viewBox="0 0 40 40" version="1.1" xmlns="http://www.w3.org/2000/svg" xmlns:xlink="http://www.w3.org/1999/xlink">
    <title>分组 3</title>
    <g id="页面-1" stroke="none" stroke-width="1" fill="none" fill-rule="evenodd">
        <g id="大屏控件" transform="translate(-299.000000, -101.000000)">
            <g id="分组-9" transform="translate(298.000000, 101.000000)">
                <g id="分组-4" transform="translate(1.000000, 0.000000)">
                    <g id="分组-3" transform="translate(2.000000, 3.500000)">
                        <polygon id="路径-10" fill="#1A4E74" points="0 22.5 0 34 36 34 36 15.5 31.5 8 27.5 14 23 4.5 18.5 11.5 14.5 9.5 8.5 21 4.5 15.5"></polygon>
                        <polyline id="路径" stroke="#D2D2D2" points="36 11 31.5 3.5 27.5 9.5 23 0 18.5 7 14.5 5 8.5 16.5 4.5 11 0 18"></polyline>
                        <polygon id="路径-10" fill="#F46D00" points="0 27.5 0 34 36 34 36 22 31.5 16.5 26.5 20.5 23 13 18.5 20 14.5 18 9.5 26 4.5 22"></polygon>
                    </g>
                </g>
            </g>
        </g>
    </g>
</svg>