<?xml version="1.0" encoding="UTF-8"?>
<svg width="40px" height="40px" viewBox="0 0 40 40" version="1.1" xmlns="http://www.w3.org/2000/svg" xmlns:xlink="http://www.w3.org/1999/xlink">
    <title>分组 3</title>
    <g id="页面-1" stroke="none" stroke-width="1" fill="none" fill-rule="evenodd">
        <g id="大屏控件" transform="translate(-574.000000, -101.000000)">
            <g id="分组-15" transform="translate(574.000000, 101.000000)">
                <g id="分组-3" transform="translate(3.000000, 2.000000)">
                    <path d="M16.5,0 C26.4411255,0 34.5,8.0588745 34.5,18 C34.5,26.1306556 29.1091852,33.002219 21.7068121,35.2354335 L19.0323601,26.6388292 C22.7700491,25.5449755 25.5,22.0912948 25.5,18 C25.5,13.0294373 21.4705627,9 16.5,9 L16.5,0 L16.5,0 Z" id="合并形状" fill="#F46D00"></path>
                    <path d="M16.5,27 C17.2302041,27 17.9400976,26.9130395 18.619889,26.7489098 L20.666156,33.9695281 C19.3353423,34.3157415 17.9391891,34.5 16.5,34.5 C10.294657,34.5 4.8893814,31.0745043 2.07197328,26.0113131 L8.48267697,22.0935176 C9.97282489,25.006198 13.0035737,27 16.5,27 Z" id="合并形状" fill="#D7D7D7"></path>
                    <path d="M16.0002436,1.50742387 L16.0001352,9.01364679 C11.262077,9.27302041 7.5,13.1971701 7.5,18 C7.5,19.2957417 7.77382313,20.5275285 8.26676027,21.6406515 L1.80736329,25.5160865 C0.651932984,23.2619486 0,20.7071078 0,18 C0,9.05447944 7.11873912,1.77162949 16.0002436,1.50742387 Z" id="合并形状" fill="#1A4E74"></path>
                </g>
            </g>
        </g>
    </g>
</svg>