<?xml version="1.0" encoding="UTF-8"?>
<svg width="40px" height="40px" viewBox="0 0 40 40" version="1.1" xmlns="http://www.w3.org/2000/svg" xmlns:xlink="http://www.w3.org/1999/xlink">
    <title>形状 2</title>
    <g id="页面-1" stroke="none" stroke-width="1" fill="none" fill-rule="evenodd">
        <g id="大屏控件" transform="translate(-1308.000000, -101.000000)">
            <g id="分组-24" transform="translate(1300.000000, 101.000000)">
                <g id="中国地图" transform="translate(8.000000, 0.000000)">
                    <g id="形状-2" transform="translate(1.000000, 5.500000)">
                        <rect id="矩形" fill="#1A4E74" x="0.5" y="0" width="1" height="29"></rect>
                        <rect id="矩形copycopycopycopycopycopycopycopycopycopycopycopycopycopycopy" fill="#1A4E74" x="9.5" y="0" width="1" height="29"></rect>
                        <rect id="矩形copycopycopycopycopycopycopycopycopycopycopycopycopycopycopycopy" fill="#1A4E74" x="18.5" y="0" width="1" height="29"></rect>
                        <rect id="矩形copycopycopycopycopycopycopycopycopycopycopycopycopycopycopycopycopy" fill="#1A4E74" x="27.5" y="0" width="1" height="29"></rect>
                        <rect id="矩形copycopycopycopycopycopycopycopycopycopycopycopycopycopycopycopycopycopy" fill="#1A4E74" x="36.5" y="0" width="1" height="29"></rect>
                        <polyline id="路径-24" stroke="#CECECE" points="1 5 10 12.5 19 6 28 9 37 5"></polyline>
                        <polyline id="路径-25" stroke="#CECECE" points="1 15.5 10 18 19 9.5 28 17 37 10.5"></polyline>
                        <polyline id="路径-26" stroke="#F46D00" points="1 21 10 21 19 18 28 21 37 14.5"></polyline>
                        <polyline id="路径-27" stroke="#F46D00" points="1 24 10 14.5 19 11.5 28 15.5 37 12.5"></polyline>
                        <circle id="椭圆形" stroke="#CECECE" fill="#FFFFFF" cx="1" cy="5" r="1"></circle>
                        <circle id="椭圆形" stroke="#CECECE" fill="#FFFFFF" cx="10" cy="11.5" r="1"></circle>
                        <circle id="椭圆形" stroke="#CECECE" fill="#FFFFFF" cx="19" cy="6" r="1"></circle>
                        <circle id="椭圆形" stroke="#CECECE" fill="#FFFFFF" cx="28" cy="9" r="1"></circle>
                        <circle id="椭圆形" stroke="#CECECE" fill="#FFFFFF" cx="37" cy="6" r="1"></circle>
                        <circle id="椭圆形" stroke="#CECECE" fill="#FFFFFF" cx="37" cy="10.5" r="1"></circle>
                        <circle id="椭圆形" stroke="#CECECE" fill="#FFFFFF" cx="28" cy="17" r="1"></circle>
                        <circle id="椭圆形" stroke="#CECECE" fill="#FFFFFF" cx="19" cy="10" r="1"></circle>
                        <circle id="椭圆形" stroke="#CECECE" fill="#FFFFFF" cx="10" cy="18" r="1"></circle>
                        <circle id="椭圆形" stroke="#CECECE" fill="#FFFFFF" cx="1" cy="15.5" r="1"></circle>
                        <circle id="椭圆形" stroke="#F46D00" fill="#FFFFFF" cx="1" cy="21" r="1"></circle>
                        <circle id="椭圆形" stroke="#F46D00" fill="#FFFFFF" cx="10" cy="14.5" r="1"></circle>
                        <circle id="椭圆形" stroke="#F46D00" fill="#FFFFFF" cx="19" cy="12" r="1"></circle>
                        <circle id="椭圆形" stroke="#F46D00" fill="#FFFFFF" cx="28" cy="15" r="1"></circle>
                        <circle id="椭圆形" stroke="#F46D00" fill="#FFFFFF" cx="37" cy="12.5" r="1"></circle>
                        <circle id="椭圆形" stroke="#F46D00" fill="#FFFFFF" cx="37" cy="15" r="1"></circle>
                        <circle id="椭圆形" stroke="#F46D00" fill="#FFFFFF" cx="28" cy="21" r="1"></circle>
                        <circle id="椭圆形" stroke="#F46D00" fill="#FFFFFF" cx="19" cy="18" r="1"></circle>
                        <circle id="椭圆形" stroke="#F46D00" fill="#FFFFFF" cx="10" cy="21" r="1"></circle>
                        <circle id="椭圆形" stroke="#F46D00" fill="#FFFFFF" cx="1" cy="24" r="1"></circle>
                    </g>
                </g>
            </g>
        </g>
    </g>
</svg>